<svg width="100%" height="100%" viewBox="0 0 1792 1792" version="1.1" xmlns="http://www.w3.org/2000/svg" xmlns:xlink="http://www.w3.org/1999/xlink" xml:space="preserve" style="fill-rule:evenodd;clip-rule:evenodd;stroke-linejoin:round;stroke-miterlimit:1.41421;">
    <defs>
	<symbol id="social-play-store" viewBox="0 0 32 32">
		<title>Play Store</title>
		<g fill="none" fill-rule="evenodd"><path class="path1" fill="#262626" d="M16.271 32.237c8.837 0 16-7.163 16-16 0-8.836-7.163-16-16-16-8.836 0-16 7.164-16 16 0 8.837 7.164 16 16 16z"/><path fill="#fff" d="M19.348 12.835l-8.416-4.598a.793.793 0 00-.794.792v14.416c0 .438.355.792.794.792 0 0 4.615-2.536 8.416-4.616z"/><path fill="#ccc" d="M21.056 13.768l3.216 1.756c1.43.77 0 1.426 0 1.426 0-.044-13.34 7.287-13.34 7.287a.8.8 0 01-.076-.003z"/><path fill="#ccc" d="M10.932 8.238l13.34 7.286c1.43.77 0 1.426 0 1.426 0-.014-1.343.714-3.176 1.715z"/><path fill="#fff" d="M21.074 13.777l3.198 1.747c1.43.77 0 1.426 0 1.426 0-.014-1.343.714-3.176 1.715l-2.393-2.455z"/></g>
	</symbol>
	<symbol id="social-app-store" viewBox="0 0 32 32">
		<title>App Store</title>
		<g fill="none" fill-rule="evenodd"><path class="path1" fill="#000" d="M16.017 32.034c8.846 0 16.017-7.171 16.017-16.017S24.863 0 16.017 0 0 7.171 0 16.017s7.171 16.017 16.017 16.017z"/><g fill="#fff"><path d="M6.776 16.017v2.464h1.11l1.355-2.464zm5.546 0l-1.403 2.464h9.705l-1.45-2.464zm9.855 0l1.413 2.464h2.284v-2.464zM15.431 9.81s.154-.267-.246-.498l-.8-.462c-.4-.23-.554.036-.554.036l-.154.267 1.6.924zm-2.062-.124l-6.16 10.67 1.6.925 6.16-10.67zM6.9 20.89l-.124 2.062 1.725-1.138zM15.35 7.7s-.4.232-.072.8l5.832 10.102 1.6-.924-5.832-10.102c-.328-.568-.728-.337-.728-.337zm6.068 11.435l.616 1.067 1.6-.924-.615-1.067zm2.973 3.264c.586-.776.425-1.691.164-2.143-.261-.453-.621-.439-.621-.439l-1.679.97s-.03.52.241.788c.45.445 1.255.082 1.895.824z"/></g></g>
	</symbol>	
	<symbol id="social-whatsapp" viewBox="0 0 1792 1792">
		<title>WhatsApp</title>
		<path d="M1113 974q13 0 97.5 44t89.5 53q2 5 2 15 0 33-17 76-16 39-71 65.5t-102 26.5q-57 0-190-62-98-45-170-118t-148-185q-72-107-71-194v-8q3-91 74-158 24-22 52-22 6 0 18 1.5t19 1.5q19 0 26.5 6.5t15.5 27.5q8 20 33 88t25 75q0 21-34.5 57.5t-34.5 46.5q0 7 5 15 34 73 102 137 56 53 151 101 12 7 22 7 15 0 54-48.5t52-48.5zm-203 530q127 0 243.5-50t200.5-134 134-200.5 50-243.5-50-243.5-134-200.5-200.5-134-243.5-50-243.5 50-200.5 134-134 200.5-50 243.5q0 203 120 368l-79 233 242-77q158 104 345 104zm0-1382q153 0 292.5 60t240.5 161 161 240.5 60 292.5-60 292.5-161 240.5-240.5 161-292.5 60q-195 0-365-94l-417 134 136-405q-108-178-108-389 0-153 60-292.5t161-240.5 240.5-161 292.5-60z"/>
	</symbol>
	<symbol id="social-tripadvisor" viewBox="0 0 2304 1792">
		<title>TripAdvisor</title>
		<path d="M651 997q0 39-27.5 66.5t-65.5 27.5q-39 0-66.5-27.5t-27.5-66.5q0-38 27.5-65.5t66.5-27.5q38 0 65.5 27.5t27.5 65.5zm1154-1q0 39-27.5 66.5t-66.5 27.5-66.5-27.5-27.5-66.5 27.5-66 66.5-27 66.5 27 27.5 66zm-1040 1q0-79-56.5-136t-136.5-57-136.5 56.5-56.5 136.5 56.5 136.5 136.5 56.5 136.5-56.5 56.5-136.5zm1153-1q0-80-56.5-136.5t-136.5-56.5q-79 0-136 56.5t-57 136.5 56.5 136.5 136.5 56.5 136.5-56.5 56.5-136.5zm-1068 1q0 116-81.5 197.5t-196.5 81.5q-116 0-197.5-82t-81.5-197 82-196.5 197-81.5 196.5 81.5 81.5 196.5zm1154-1q0 115-81.5 196.5t-197.5 81.5q-115 0-196.5-81.5t-81.5-196.5 81.5-196.5 196.5-81.5q116 0 197.5 81.5t81.5 196.5zm-964 3q0-191-135.5-326.5t-326.5-135.5q-125 0-231 62t-168 168.5-62 231.5 62 231.5 168 168.5 231 62q191 0 326.5-135.5t135.5-326.5zm668-573q-254-111-556-111-319 0-573 110 117 0 223 45.5t182.5 122.5 122 183 45.5 223q0-115 43.5-219.5t118-180.5 177.5-123 217-50zm479 573q0-191-135-326.5t-326-135.5-326.5 135.5-135.5 326.5 135.5 326.5 326.5 135.5 326-135.5 135-326.5zm-266-566h383q-44 51-75 114.5t-40 114.5q110 151 110 337 0 156-77 288t-209 208.5-287 76.5q-133 0-249-56t-196-155q-47 56-129 179-11-22-53.5-82.5t-74.5-97.5q-80 99-196.5 155.5t-249.5 56.5q-155 0-287-76.5t-209-208.5-77-288q0-186 110-337-9-51-40-114.5t-75-114.5h365q149-100 355-156.5t432-56.5q224 0 421 56t348 157z"/>
	</symbol>
	<symbol id="social-google-my-business" viewBox="0 0 32 32">
		<title>Google My Business</title>
		<path d="M10.496 1.998a.5.5 0 00-.074.006h-4.42c-.554 0-1.037.252-1.361.611-.324.36-.515.808-.625 1.272l-2 8.4a.5.5 0 00-.012.172.5.5 0 00-.002.045c0 1.445.759 2.784 1.996 3.51.001 0 .003 0 .004.002v13.488a.5.5 0 00.5.5h24a.5.5 0 00.5-.5V16.016l.002-.002a4.067 4.067 0 001.998-3.51.5.5 0 00-.002-.04.5.5 0 000-.003.5.5 0 000-.008.5.5 0 00-.012-.166l-2-8.4c-.11-.464-.3-.913-.625-1.272a1.836 1.836 0 00-1.361-.611h-4.42a.5.5 0 00-.09-.006.5.5 0 00-.07.006h-5.84a.5.5 0 00-.088-.006.5.5 0 00-.076.006H10.58a.5.5 0 00-.084-.006zM6.002 3.004h3.947l-.91 9H3.112l1.876-7.885c.082-.345.225-.645.395-.834a.754.754 0 01.619-.281zm4.953 0h5.047v9h-5.955l.908-9zm6.047 0h5.047l.908 9h-5.955v-9zm6.053 0h3.947c.277 0 .447.093.617.281.17.189.314.49.397.834l1.877 7.885h-5.928l-.91-9zm-19.922 10H8.869c-.152.884-.594 1.693-1.371 2.148a2.948 2.948 0 01-2.994 0c-.777-.455-1.219-1.264-1.371-2.148zm7 0H15.869c-.152.884-.594 1.693-1.371 2.148a2.948 2.948 0 01-2.994 0c-.777-.455-1.219-1.264-1.371-2.148zm7 0H22.869c-.152.884-.594 1.693-1.371 2.148a2.948 2.948 0 01-2.994 0c-.777-.455-1.219-1.264-1.371-2.148zm7 0H29.869c-.152.884-.594 1.693-1.371 2.148a2.948 2.948 0 01-2.994 0c-.777-.455-1.219-1.264-1.371-2.148zM9.5 14.457c.345.636.856 1.18 1.498 1.557a3.957 3.957 0 004.006 0 4.028 4.028 0 001.496-1.557c.345.636.856 1.18 1.498 1.557a3.957 3.957 0 004.006 0 4.028 4.028 0 001.496-1.557c.345.636.856 1.18 1.498 1.557.92.54 2 .676 3.004.414v12.576h-23V16.428a3.954 3.954 0 003.002-.414A4.028 4.028 0 009.5 14.457zm13.592 6.547a3.018 3.018 0 00-2.213.877 3.006 3.006 0 00-.477 3.623 3.004 3.004 0 003.375 1.396 3.003 3.003 0 002.225-2.896.5.5 0 00-.5-.5h-2.5a.5.5 0 100 1h1.83c-.187.668-.616 1.245-1.312 1.432a1.996 1.996 0 01-2.25-.932 1.998 1.998 0 01.316-2.416 1.998 1.998 0 012.416-.317.5.5 0 00.5-.867 2.994 2.994 0 00-1.41-.4z" />
	</symbol>
    </defs>
</svg>